# xmcd
#
# Track frame offsets:
#	150
#	12031
#	28018
#	46946
#	59632
#	75280
#	89503
#	101235
#	117103
#	135869
#	148405
#	164052
#
# Disc length: 2376 seconds
#
# Revision: 1
# Processed by: cddbd v1.5.2PL0 Copyright (c) Steve Scherf et al.
# Submitted via: audiograbber 1.83.01
#
DISCID=9e09460c
DTITLE=Vern Gosdin - Chartbuster
DYEAR=1900
DGENRE=
TTITLE0=Set 'Em Up Joe (vocal)
TTITLE1=If You're Gonna Do Me Wrong (Do It Right) (vocal)
TTITLE2=That Just About Does It (vocal)
TTITLE3=I Can Tell By The Way You Dance (vocal)
TTITLE4=The Garden (vocal)
TTITLE5=Is It Raining At Your House (vocal)
TTITLE6=Set 'Em Up Joe
TTITLE7=If You're Gonna Do Me Wrong (Do It Right)
TTITLE8=That Just About Does It
TTITLE9=I Can Tell By The Way You Dance
TTITLE10=The Garden
TTITLE11=Is It Raining At Your House
EXTD=
EXTT0=
EXTT1=
EXTT2=
EXTT3=
EXTT4=
EXTT5=
EXTT6=
EXTT7=
EXTT8=
EXTT9=
EXTT10=
EXTT11=
PLAYORDER=
